<?xml version="1.0" encoding="UTF-8" standalone="no"?>
<svg width="200px" height="200px" viewBox="0 0 200 200" version="1.1" xmlns="http://www.w3.org/2000/svg" xmlns:xlink="http://www.w3.org/1999/xlink">
    <!-- Generator: Sketch 3.8.3 (29802) - http://www.bohemiancoding.com/sketch -->
    <title>camera</title>
    <desc>Created with Sketch.</desc>
    <defs></defs>
    <g id="Page-1" stroke="none" stroke-width="1" fill="none" fill-rule="evenodd">
        <rect id="Rectangle-1" fill="#1565C0" x="0" y="0" width="200" height="200" rx="20"></rect>
        <g id="Camera-assembly" transform="translate(13.000000, 25.000000)">
            <g id="Camera" transform="translate(86.635044, 61.769067) rotate(-22.000000) translate(-86.635044, -61.769067) translate(7.135044, 27.269067)" fill="#FFFFFF">
                <circle id="Oval-1" cx="98.5" cy="56.5" r="12.5"></circle>
                <rect id="Rectangle-2" x="31" y="4" width="128" height="49" rx="20"></rect>
                <path d="M32.533357,10.6624435 L45.2101158,40.1551913 C46.5174632,43.1967627 44.8953359,45.6624435 41.5756688,45.6624435 L-6.57550345,45.6624435 C-9.89010047,45.6624435 -11.519253,43.2013114 -10.2099504,40.1551913 L2.46680832,10.6624435 L32.533357,10.6624435 Z" id="Rectangle-3" transform="translate(17.500000, 28.162443) rotate(-270.000000) translate(-17.500000, -28.162443) "></path>
            </g>
            <path d="M113,82 C113,82 113,84.6882172 113,88.0063161 L113,125.993684 C113,129.310881 115.686624,132 118.99922,132 L153,132" id="Line" stroke="#FFFFFF" stroke-width="14" stroke-linecap="square"></path>
        </g>
    </g>
</svg>